Coordinates
version=1
nRows=15
nColumns=46
inDegrees=yes

Units are S.I. units (second, meters, Newtons, ...)
Angles are in degrees.

endheader
time	pelvis_tilt	pelvis_list	pelvis_rotation	pelvis_tx	pelvis_ty	pelvis_tz	bb_angle	bb_tx	bb_ty	bb_tz	hip_flexion_r	hip_adduction_r	hip_rotation_r	knee_angle_r	knee_angle_r_beta	ankle_angle_r	subtalar_angle_r	mtp_angle_r	crank_angle_r	hip_flexion_l	hip_adduction_l	hip_rotation_l	knee_angle_l	knee_angle_l_beta	ankle_angle_l	subtalar_angle_l	mtp_angle_l	crank_angle_l	lumbar_extension	lumbar_bending	lumbar_rotation	arm_flex_r	arm_add_r	arm_rot_r	elbow_flex_r	pro_sup_r	wrist_flex_r	wrist_dev_r	arm_flex_l	arm_add_l	arm_rot_l	elbow_flex_l	pro_sup_l	wrist_flex_l	wrist_dev_l
      0.00000000	    -17.00067901	     -6.22826289	     -3.04382004	      0.12019567	      1.13469905	     -0.24397677	      0.00000000	      0.50000000	      0.00000000	      0.25000000	     92.11702509	     -8.83721891	     -5.87103819	    104.36177081	      1.82145651	     24.68643648	      7.74154943	      0.00000000	      0.00000000	     46.63021322	    -15.52201933	     -7.04944688	     52.32377217	      0.91322210	     14.40880454	      7.49371276	      0.00000000	      0.00000000	    -48.40031924	      4.86520824	      8.96241482	     89.29238027	     -8.99489816	     35.45171414	     31.33545096	     24.32920528	      0.00000000	      0.00000000	     89.27718527	     -2.33213272	     36.55570569	     22.35373109	     22.90334713	      0.00000000	      0.00000000
      0.00500000	    -17.00962471	     -6.20316975	     -3.08958113	      0.12022825	      1.13469464	     -0.24392548	      0.00000000	      0.50000000	      0.00000000	      0.25000000	     92.13221757	     -8.78479962	     -5.83972373	    104.36197075	      1.82146000	     24.70802001	      7.74926230	      0.00000000	      0.00000000	     46.61289424	    -15.53394428	     -7.10457052	     52.31475632	      0.91306475	     14.40329856	      7.48668922	      0.00000000	      0.00000000	    -48.38792417	      4.80059907	      8.99739890	     89.30475908	     -9.29047223	     36.06788468	     30.84863098	     27.94448993	      0.00000000	      0.00000000	     89.27076045	     -2.18013504	     35.63372022	     21.85483387	     26.05458531	      0.00000000	      0.00000000
      0.01000000	    -17.04891236	     -6.21902686	     -3.04656911	      0.12022222	      1.13461051	     -0.24396950	      0.00000000	      0.50000000	      0.00000000	      0.25000000	     92.16940744	     -8.84041463	     -5.86111228	    104.37245755	      1.82164303	     24.72208130	      7.78055644	      0.00000000	      0.00000000	     46.67254710	    -15.50474453	     -7.03642208	     52.31362962	      0.91304508	     14.43498361	      7.50294464	      0.00000000	      0.00000000	    -48.37165030	      4.95265544	      8.86782896	     89.32066478	     -9.01497689	     35.79723218	     30.48307700	     29.88932033	      0.00000000	      0.00000000	     89.26949670	     -2.61315890	     36.32928593	     21.56886527	     28.03916055	      0.00000000	      0.00000000
      0.01500000	    -17.08357380	     -6.50301766	     -3.19334015	      0.11999942	      1.13416170	     -0.24317513	      0.00000000	      0.50000000	      0.00000000	      0.25000000	     92.16883118	     -8.54304663	     -6.11876055	    104.38113529	      1.82179449	     24.91649317	      7.94103329	      0.00000000	      0.00000000	     46.77349439	    -15.78971617	     -6.81404937	     52.37345218	      0.91408918	     14.68862782	      7.76247181	      0.00000000	      0.00000000	    -48.50375723	      4.99851799	      9.23173488	     89.21079970	     -9.14688575	     34.03320637	     31.66629730	     31.07294395	      0.00000000	      0.00000000	     89.14020633	     -2.79920285	     34.50833783	     23.07892132	     29.34274018	      0.00000000	      0.00000000
      0.02000000	    -17.17960154	     -6.29948786	     -3.18215906	      0.11985194	      1.13428136	     -0.24351724	      0.00000000	      0.50000000	      0.00000000	      0.25000000	     92.34102660	     -8.59430213	     -5.93020680	    104.35823039	      1.82139472	     24.60165208	      7.50595405	      0.00000000	      0.00000000	     46.87408724	    -15.71525690	     -7.02960846	     52.41048581	      0.91473554	     14.44075282	      7.45592968	      0.00000000	      0.00000000	    -48.20779180	      4.84000678	      9.01984298	     89.28827403	     -8.57269981	     34.12862835	     30.02264750	     31.22006668	      0.00000000	      0.00000000	     89.26691312	     -2.22554617	     34.39593464	     21.26031668	     29.39564974	      0.00000000	      0.00000000
      0.02500000	    -17.19154160	     -6.31768626	     -3.14696925	      0.11986130	      1.13428904	     -0.24361462	      0.00000000	      0.50000000	      0.00000000	      0.25000000	     92.34514955	     -8.62392521	     -5.94225050	    104.35727460	      1.82137804	     24.60646922	      7.47627827	      0.00000000	      0.00000000	     46.88508036	    -15.68794033	     -6.95942467	     52.41101044	      0.91474470	     14.53567606	      7.31620190	      0.00000000	      0.00000000	    -48.19391822	      4.89063964	      9.03645526	     89.28508364	     -8.53242920	     34.00420469	     29.87718665	     31.46698346	      0.00000000	      0.00000000	     89.26713906	     -2.17438887	     34.29376325	     21.18040097	     29.62305017	      0.00000000	      0.00000000
      0.03000000	    -17.17519255	     -6.31037153	     -3.13254598	      0.11985557	      1.13431322	     -0.24364783	      0.00000000	      0.50000000	      0.00000000	      0.25000000	     92.33012968	     -8.63880729	     -5.92740706	    104.36329984	      1.82148320	     24.61634899	      7.51213194	      0.00000000	      0.00000000	     46.87492442	    -15.68582833	     -6.97452283	     52.42339661	      0.91496088	     14.51210284	      7.37397832	      0.00000000	      0.00000000	    -48.21234624	      4.89473135	      9.02007430	     89.28129237	     -8.51129730	     33.95189559	     29.81240189	     31.86207303	      0.00000000	      0.00000000	     89.26173793	     -2.19916610	     34.16130832	     21.16636162	     29.98745378	      0.00000000	      0.00000000
      0.03500000	    -17.18354123	     -6.32001139	     -3.14129464	      0.11982994	      1.13428909	     -0.24365291	      0.00000000	      0.50000000	      0.00000000	      0.25000000	     92.33359561	     -8.63048502	     -5.94361375	    104.36013582	      1.82142798	     24.63104844	      7.46928382	      0.00000000	      0.00000000	     46.88693491	    -15.69901779	     -6.97438407	     52.42284739	      0.91495129	     14.50754627	      7.38782526	      0.00000000	      0.00000000	    -48.19122573	      4.88665898	      9.05312900	     89.29861739	     -9.06980746	     35.70296448	     30.05344462	     31.89057411	      0.00000000	      0.00000000	     89.27536631	     -2.58306272	     36.23345863	     21.27725199	     29.58482533	      0.00000000	      0.00000000
      0.04000000	    -17.22253567	     -6.30875748	     -3.14308098	      0.11982804	      1.13430122	     -0.24370843	      0.00000000	      0.50000000	      0.00000000	      0.25000000	     92.36588060	     -8.63536005	     -5.92978678	    104.33427999	      1.82097671	     24.59567394	      7.46745653	      0.00000000	      0.00000000	     46.89859692	    -15.66356004	     -6.95790202	     52.36994567	      0.91402798	     14.54216264	      7.32679790	      0.00000000	      0.00000000	    -48.14640836	      4.92729234	      9.06532251	     89.29293042	     -8.76541344	     35.05598377	     29.82198425	     31.87512669	      0.00000000	      0.00000000	     89.27285194	     -2.41026399	     35.69684565	     21.09960385	     29.53932616	      0.00000000	      0.00000000
      0.04500000	    -17.17483681	     -6.32137095	     -3.14854245	      0.11978696	      1.13429172	     -0.24365673	      0.00000000	      0.50000000	      0.00000000	      0.25000000	     92.32978759	     -8.62330666	     -5.94309966	    104.35706730	      1.82137442	     24.60820817	      7.47900135	      0.00000000	      0.00000000	     46.87846633	    -15.70663233	     -6.98277406	     52.42787783	      0.91503909	     14.53081070	      7.40531887	      0.00000000	      0.00000000	    -48.19797660	      4.88210960	      9.05055779	     89.30072321	     -9.00989765	     35.59147465	     30.08408113	     31.38155593	      0.00000000	      0.00000000	     89.27182782	     -2.65046567	     36.57926460	     21.43004498	     28.78493325	      0.00000000	      0.00000000
      0.05000000	    -17.14983311	     -6.32701558	     -3.12673192	      0.11974391	      1.13435219	     -0.24372378	      0.00000000	      0.50000000	      0.00000000	      0.25000000	     92.29819418	     -8.64531838	     -5.94076787	    104.35409344	      1.82132252	     24.64561952	      7.53034170	      0.00000000	      0.00000000	     46.86043456	    -15.68395402	     -6.95668677	     52.42196064	      0.91493581	     14.51642427	      7.31025884	      0.00000000	      0.00000000	    -48.23110534	      4.89930859	      9.03661209	     89.28414935	     -8.78126142	     34.91463650	     30.32247045	     29.74764888	      0.00000000	      0.00000000	     89.27341833	     -2.39065944	     35.71920105	     21.61966585	     26.79998721	      0.00000000	      0.00000000
      0.05500000	    -17.18746229	     -6.34205148	     -3.10407772	      0.11975696	      1.13428657	     -0.24379922	      0.00000000	      0.50000000	      0.00000000	      0.25000000	     92.33137203	     -8.68429651	     -5.95977985	    104.35511549	      1.82134036	     24.64506249	      7.59189776	      0.00000000	      0.00000000	     46.91409113	    -15.67125738	     -6.91503544	     52.43128625	      0.91509858	     14.50266709	      7.35620892	      0.00000000	      0.00000000	    -48.20284516	      4.94032565	      9.03577617	     89.27155935	     -8.40387230	     33.54630594	     30.06583658	     30.10048127	      0.00000000	      0.00000000	     89.25214198	     -1.92427590	     33.35862950	     21.56311145	     27.30356253	      0.00000000	      0.00000000
      0.06000000	    -17.17388308	     -6.33167414	     -3.13602260	      0.11975272	      1.13431216	     -0.24368670	      0.00000000	      0.50000000	      0.00000000	      0.25000000	     92.32254288	     -8.60750746	     -5.92748857	    104.34644979	      1.82118911	     24.61586347	      7.48542142	      0.00000000	      0.00000000	     46.88309627	    -15.70413083	     -6.97003942	     52.42606599	      0.91500747	     14.53267735	      7.39723984	      0.00000000	      0.00000000	    -48.20451669	      4.92224007	      9.02659226	     89.28407116	     -8.67963868	     34.76759494	     30.27436172	     29.61798609	      0.00000000	      0.00000000	     89.28374004	     -2.93109911	     37.97003115	     21.72276850	     26.94042353	      0.00000000	      0.00000000
      0.06500000	    -17.14293905	     -6.31179736	     -3.13805844	      0.11975262	      1.13439358	     -0.24370382	      0.00000000	      0.50000000	      0.00000000	      0.25000000	     92.29487678	     -8.63416977	     -5.92331718	    104.34581272	      1.82117799	     24.60846468	      7.52791636	      0.00000000	      0.00000000	     46.83520317	    -15.68809418	     -6.99855085	     52.41166418	      0.91475611	     14.51469020	      7.38296994	      0.00000000	      0.00000000	    -48.24736713	      4.89053698	      9.00918497	     89.28472079	     -8.55484512	     34.22406395	     30.12823803	     30.23050556	      0.00000000	      0.00000000	     89.27698462	     -2.66390736	     36.68466695	     21.60454712	     27.57031103	      0.00000000	      0.00000000
      0.07000000	    -17.14699693	     -6.33086150	     -3.14776772	      0.11973547	      1.13435720	     -0.24367344	      0.00000000	      0.50000000	      0.00000000	      0.25000000	     92.29839679	     -8.62322366	     -5.94878181	    104.34443988	      1.82115403	     24.59851993	      7.49890049	      0.00000000	      0.00000000	     46.85321775	    -15.71815628	     -6.99321193	     52.43664439	      0.91519209	     14.54262586	      7.40187860	      0.00000000	      0.00000000	    -48.23612451	      4.88891156	      9.07572637	     89.29268149	     -8.95062519	     35.43801799	     30.41695439	     29.54001815	      0.00000000	      0.00000000	     89.27475715	     -2.58259591	     36.68836330	     21.72633256	     26.67385481	      0.00000000	      0.00000000
